<?xml version="1.0" encoding="utf-8"?>
<!-- Generator: Adobe Illustrator 19.2.0, SVG Export Plug-In . SVG Version: 6.00 Build 0)  -->
<svg class="svg-table" version="1.1" id="Layer_1" xmlns="http://www.w3.org/2000/svg" xmlns:xlink="http://www.w3.org/1999/xlink" x="0px" y="0px"
	 viewBox="0 0 35 35" enable-background="new 0 0 35 35" xml:space="preserve">
<path class="svg-table-inner" fill="#404451" d="M2,0h31c1.1,0,2,0.9,2,2v31c0,1.1-0.9,2-2,2H2c-1.1,0-2-0.9-2-2V2C0,0.9,0.9,0,2,0z"/>
<path fill="#FFFFFF" d="M12,24c0,1.1,0.9,2,2,2h8c1.1,0,2-0.9,2-2V12H12V24z M25,9h-3.5l-1-1h-5l-1,1H11v2h14V9z"/>
</svg>