<?xml version="1.0" encoding="utf-8"?>
<!-- Generator: Adobe Illustrator 19.2.0, SVG Export Plug-In . SVG Version: 6.00 Build 0)  -->
<svg class="svg-table" version="1.1" id="Layer_1" xmlns="http://www.w3.org/2000/svg" xmlns:xlink="http://www.w3.org/1999/xlink" x="0px" y="0px"
	 viewBox="0 0 35 35" enable-background="new 0 0 35 35" xml:space="preserve">
<path class="svg-table-inner" fill-rule="evenodd" clip-rule="evenodd" fill="#404451" d="M2,0h31c1.1,0,2,0.9,2,2v31c0,1.1-0.9,2-2,2H2c-1.1,0-2-0.9-2-2V2
	C0,0.9,0.9,0,2,0z"/>
<path fill="#FFFFFF" d="M5.1,20.4h5.8v-5.8H5.1V20.4z M5.1,27.7h5.8v-5.8H5.1V27.7z M5.1,13.1h5.8V7.3H5.1V13.1z M12.4,20.4h17.5
	v-5.8H12.4V20.4z M12.4,27.7h17.5v-5.8H12.4V27.7z M12.4,7.3v5.8h17.5V7.3H12.4z"/>
</svg>