<?xml version="1.0" encoding="utf-8"?>
<!-- Generator: Adobe Illustrator 19.2.0, SVG Export Plug-In . SVG Version: 6.00 Build 0)  -->
<svg version="1.1" id="Layer_1" xmlns="http://www.w3.org/2000/svg" xmlns:xlink="http://www.w3.org/1999/xlink" x="0px" y="0px"
	 viewBox="0 0 35 35" enable-background="new 0 0 35 35" xml:space="preserve">
<g>
	<polygon fill="#404451" points="20.8,7.5 20.8,7.9 21.2,7.9 	"/>
	<polygon fill="#404451" points="16.8,25.2 16.8,25.7 17.2,25.7 28.7,14.2 28.3,13.7 	"/>
	<path fill="#404451" d="M17.7,27.8h-4.2c-0.3,0-0.6-0.1-0.8-0.3c-0.2-0.2-0.3-0.5-0.3-0.8l0-0.6l-1.6,1.1c-0.4,0.3-0.9,0.2-1.2,0
		c-0.4-0.3-0.5-0.7-0.4-1.2l0.2-0.7l-1.5,1.2c-0.5,0.4-1.2,0.3-1.5-0.2c-0.2-0.2-0.3-0.5-0.2-0.8c0-0.3,0.2-0.5,0.4-0.7l4.1-3.2
		c0.4-0.3,0.9-0.3,1.3,0c0.4,0.3,0.6,0.7,0.4,1.2l-0.3,1l0.8-0.6c0.3-0.2,0.8-0.2,1.1-0.1c0.4,0.2,0.6,0.6,0.6,1l0,1.6h0v-0.9
		c0-0.3,0.2-0.7,0.4-0.9l7.7-7.7V10h-3c-0.6,0-1.1-0.5-1.1-1.1V6H5.5V29h17.2v-5.8l-4.2,4.2C18.4,27.7,18.1,27.8,17.7,27.8z
		 M7.9,7.9h8.2c0.6,0,1.1,0.5,1.1,1.1S16.7,10,16.1,10H7.9c-0.6,0-1.1-0.5-1.1-1.1S7.3,7.9,7.9,7.9z M7.9,11.1h12.3
		c0.6,0,1.1,0.5,1.1,1.1c0,0.6-0.5,1.1-1.1,1.1H7.9c-0.6,0-1.1-0.5-1.1-1.1C6.8,11.6,7.3,11.1,7.9,11.1z M7.9,14.3h12.3
		c0.6,0,1.1,0.5,1.1,1.1s-0.5,1.1-1.1,1.1H7.9c-0.6,0-1.1-0.5-1.1-1.1S7.3,14.3,7.9,14.3z"/>
	<path fill="#404451" d="M32.8,0h-31c-1.1,0-2,0.9-2,2v31c0,1.1,0.9,2,2,2h31c1.1,0,2-0.9,2-2V2C34.8,0.9,33.9,0,32.8,0z M31,15
		l-6.1,6.1v9.1c0,0.6-0.5,1.1-1.1,1.1H4.4c-0.6,0-1.1-0.5-1.1-1.1V4.9c0-0.6,0.5-1.1,1.1-1.1h15.3c0.1,0,0.1,0,0.2,0
		c0.1,0,0.2,0,0.3,0.1C20.4,4,20.5,4,20.5,4.1l4.1,4.1c0.1,0.1,0.1,0.1,0.2,0.2c0.1,0.1,0.1,0.2,0.1,0.3l0,0.1c0,0.1,0,0.1,0,0.2V14
		l2.6-2.6c0.4-0.4,1.1-0.4,1.5,0l2,2c0.2,0.2,0.3,0.5,0.3,0.8C31.3,14.5,31.2,14.8,31,15z"/>
</g>
</svg>
