<svg class="svg-table"
     xmlns="http://www.w3.org/2000/svg" xmlns:xlink="http://www.w3.org/1999/xlink"
     version="1.1"
     enable-background="new 0 0 35 35"
     xml:space="preserve" width="35"
     height="35">
    <rect id="backgroundrect" width="100%" height="100%" x="0" y="0" fill="none" stroke="none"/>
    <g class="currentLayer">
        <title>Layer 1</title>
        <path class="svg-table-inner" fill="#404451" d="M2,0h31c1.1,0,2,0.9,2,2v31c0,1.1-0.9,2-2,2H2c-1.1,0-2-0.9-2-2V2C0,0.9,0.9,0,2,0z" id="svg_1"/>
        <path fill="#FFFFFF"
              d="M18,23c1.1,0,2-0.9,2-2s-0.9-2-2-2s-2,0.9-2,2S16.9,23,18,23z M24,14h-1v-2c0-2.8-2.2-5-5-5s-5,2.2-5,5h1.9  c0-1.7,1.4-3.1,3.1-3.1s3.1,1.4,3.1,3.1v2H12c-1.1,0-2,0.9-2,2v10c0,1.1,0.9,2,2,2h12c1.1,0,2-0.9,2-2V16C26,14.9,25.1,14,24,14z   M24,26H12V16h12V26z"
              id="svg_2"
              class=""/>
        <path fill="#FFFFFF"
              fill-opacity="1"
              stroke="#ffffff"
              stroke-opacity="1"
              stroke-width="2"
              stroke-dasharray="none"
              stroke-linejoin="miter"
              stroke-linecap="butt"
              stroke-dashoffset=""
              fill-rule="nonzero"
              opacity="1"
              marker-start=""
              marker-mid=""
              marker-end=""
              d="M13.941988197384875,11.745855722396165L13.941988197384875,14.61878379583288"
              id="svg_6"/>
    </g>
</svg>