<?xml version="1.0" encoding="utf-8"?>
<!-- Generator: Adobe Illustrator 19.2.0, SVG Export Plug-In . SVG Version: 6.00 Build 0)  -->
<svg version="1.1" id="Layer_1" xmlns="http://www.w3.org/2000/svg" xmlns:xlink="http://www.w3.org/1999/xlink" x="0px" y="0px"
	 viewBox="0 0 35 35" enable-background="new 0 0 35 35" xml:space="preserve">
<g>
	<path fill="#404451" d="M27,18.2l1-0.2c0,0,0.1,0,0.1-0.1c0,0,0-0.1,0-0.1l-0.8-4.2c0,0,0-0.1-0.1-0.1c0,0-0.1,0-0.1,0L26,13.6
		c0,0-0.1,0-0.1,0.1c0,0,0,0.1,0,0.1l0.3,1.9l-1.8-1.7C24.3,14,24.2,14,24.1,14l-1.1,0.2c0,0-0.1,0-0.1,0.1c0,0,0,0.1,0,0.1l0.8,4.2
		c0,0,0,0.1,0.1,0.1c0,0,0.1,0,0.1,0l1.2-0.2c0,0,0.1,0,0.1-0.1c0,0,0-0.1,0-0.1l-0.3-1.8l1.7,1.6C26.8,18.2,26.9,18.2,27,18.2z"/>
	<path fill="#404451" d="M35.1,9.1V2c0-1.1-0.9-2-2-2h-31c-1.1,0-2,0.9-2,2v13.3L35.1,9.1z"/>
	<path fill="#404451" d="M21.1,19.1c0.1,0.1,0.2,0.1,0.3,0.1l1.5-0.3c0,0,0.1,0,0.1-0.1c0,0,0-0.1,0-0.1c0,0,0-0.1,0-0.1l-1.1-1.4
		c0.4-0.3,0.6-0.8,0.5-1.4c-0.1-0.5-0.3-0.8-0.7-1.1c-0.4-0.2-0.9-0.3-1.5-0.2l-2.5,0.5c0,0-0.1,0-0.1,0.1c0,0,0,0.1,0,0.1l0.8,4.2
		c0,0,0,0.1,0.1,0.1c0,0,0.1,0,0.1,0l1.4-0.3c0,0,0.1,0,0.1-0.1c0,0,0-0.1,0-0.1L19.8,18l0.5-0.1L21.1,19.1z M19.6,16.8l-0.1-0.7
		l0.8-0.1c0.1,0,0.2,0,0.2,0.1c0.1,0.1,0.1,0.1,0.1,0.2s0,0.2,0,0.3c0,0.1-0.1,0.1-0.2,0.1L19.6,16.8z"/>
	<path fill="#404451" d="M32.5,13c-0.5-0.2-1.1-0.3-1.8-0.2c-0.7,0.1-1.3,0.4-1.7,0.8c-0.4,0.4-0.5,0.9-0.4,1.6l0.1,0.7
		c0.1,0.4,0.3,0.8,0.5,1c0.3,0.3,0.6,0.4,1,0.5c0.4,0.1,0.8,0,1.3,0c0.5-0.1,0.9-0.2,1.2-0.4c0.3-0.2,0.6-0.4,0.7-0.8
		c0.2-0.3,0.2-0.7,0.1-1.1l-0.1-0.8C33.3,13.6,33,13.2,32.5,13z M31.7,15.9c-0.1,0.1-0.3,0.2-0.5,0.2c-0.2,0-0.4,0-0.5,0
		c-0.1-0.1-0.2-0.2-0.2-0.4l-0.2-1c0-0.2,0-0.3,0.1-0.4c0.1-0.1,0.3-0.2,0.5-0.2c0.2,0,0.4,0,0.5,0.1c0.1,0.1,0.2,0.2,0.2,0.4l0.2,1
		C31.9,15.6,31.8,15.8,31.7,15.9z"/>
	<path fill="#404451" d="M3.6,21.1c-0.3,0.1-0.5,0-0.7-0.1c-0.1,0-0.1-0.1-0.2,0l-1.3,0.2c-0.1,0-0.1,0.1-0.1,0.2
		c0.1,0.4,0.3,0.7,0.8,0.9c0.4,0.2,1,0.2,1.8,0.1c0.7-0.1,1.3-0.4,1.7-0.7c0.4-0.3,0.5-0.7,0.5-1.2c-0.1-0.4-0.3-0.7-0.6-0.9
		c-0.3-0.2-0.9-0.2-1.6-0.2c-0.3,0-0.6,0-0.7,0c-0.1,0-0.2-0.1-0.2-0.1c0-0.1,0.1-0.2,0.4-0.3c0.2,0,0.4,0,0.5,0.1
		c0.1,0,0.1,0.1,0.2,0l1.4-0.3c0,0,0.1,0,0.1-0.1c0,0,0-0.1,0-0.1c-0.1-0.3-0.3-0.6-0.8-0.8c-0.5-0.2-1-0.3-1.7-0.1
		c-0.7,0.1-1.2,0.3-1.5,0.7c-0.3,0.3-0.5,0.7-0.4,1.2c0.1,0.8,0.8,1.1,2.1,1c0.4,0,0.7,0,0.8,0c0.1,0,0.2,0.1,0.2,0.1
		C4.2,20.9,4,21,3.6,21.1z"/>
	<path fill="#404451" d="M0.1,25.9V33c0,1.1,0.9,2,2,2h31c1.1,0,2-0.9,2-2V19.7L0.1,25.9z"/>
	<path fill="#404451" d="M11.2,17.7c0,0,0-0.1,0-0.1l-0.2-1c0,0,0-0.1-0.1-0.1c0,0-0.1,0-0.1,0l-4.5,0.8c0,0-0.1,0-0.1,0.1
		c0,0,0,0.1,0,0.1l0.2,1c0,0,0,0.1,0.1,0.1c0,0,0.1,0,0.1,0L8,18.3l0.5,3c0,0,0,0.1,0.1,0.1c0,0,0.1,0,0.1,0l1.3-0.2
		c0,0,0.1,0,0.1-0.1c0,0,0-0.1,0-0.1l-0.5-3l1.4-0.3C11.1,17.8,11.1,17.7,11.2,17.7z"/>
	<path fill="#404451" d="M15.9,15.9c-0.5-0.2-1.1-0.3-1.8-0.2c-0.7,0.1-1.3,0.4-1.7,0.8C12,17,11.9,17.5,12,18.1l0.1,0.7
		c0.1,0.4,0.3,0.8,0.5,1c0.3,0.3,0.6,0.4,1,0.5c0.4,0.1,0.8,0,1.3,0s0.9-0.2,1.2-0.4c0.3-0.2,0.6-0.4,0.7-0.8
		c0.2-0.3,0.2-0.7,0.1-1.1l-0.1-0.8C16.7,16.6,16.4,16.2,15.9,15.9z M15.1,18.9C15,19,14.9,19,14.7,19.1c-0.2,0-0.4,0-0.5,0
		C14,19,14,18.8,13.9,18.7l-0.2-1c0-0.2,0-0.3,0.1-0.4c0.1-0.1,0.3-0.2,0.5-0.2c0.2,0,0.4,0,0.5,0.1c0.1,0.1,0.2,0.2,0.2,0.4l0.2,1
		C15.3,18.6,15.2,18.7,15.1,18.9z"/>
</g>
</svg>
