<?xml version="1.0" encoding="utf-8"?>
<!-- Generator: Adobe Illustrator 19.2.0, SVG Export Plug-In . SVG Version: 6.00 Build 0)  -->
<svg version="1.1" id="Layer_1" xmlns="http://www.w3.org/2000/svg" xmlns:xlink="http://www.w3.org/1999/xlink" x="0px" y="0px"
	 viewBox="0 0 55 60" enable-background="new 0 0 55 60" xml:space="preserve">
<path fill-rule="evenodd" clip-rule="evenodd" fill="#404451" d="M27.9,6.4c13.3,0,24,10.8,24,24.1c0,13.3-10.7,24.1-24,24.1
	s-24-10.8-24-24.1C3.9,17.2,14.7,6.4,27.9,6.4z"/>
<g>
	<path fill="#FFFFFF" d="M34.1,20.6v-4.9H21.7v4.9h-7.4v2.5h2.5v22.2H39V23.1h2.5v-2.5H34.1z M24.2,18.2h7.4v2.5h-7.4V18.2z
		 M36.6,42.9H19.3V23.1h17.3V42.9z"/>
	<rect x="21.7" y="25.6" fill="#FFFFFF" width="2.5" height="14.8"/>
	<rect x="31.6" y="25.6" fill="#FFFFFF" width="2.5" height="14.8"/>
	<rect x="26.7" y="25.6" fill="#FFFFFF" width="2.5" height="14.8"/>
</g>
</svg>
