<?xml version="1.0" encoding="utf-8"?>
<!-- Generator: Adobe Illustrator 19.2.0, SVG Export Plug-In . SVG Version: 6.00 Build 0)  -->
<svg version="1.1" id="Layer_1" xmlns="http://www.w3.org/2000/svg" xmlns:xlink="http://www.w3.org/1999/xlink" x="0px" y="0px"
	 viewBox="0 0 55 60" enable-background="new 0 0 55 60" xml:space="preserve">
<path fill-rule="evenodd" clip-rule="evenodd" fill="#1E88E5" d="M27.7,6.2c13.3,0,24,10.8,24,24.1c0,13.3-10.7,24.1-24,24.1
	s-24-10.8-24-24.1C3.7,17,14.4,6.2,27.7,6.2z"/>
<g>
	<g>
		<path fill-rule="evenodd" clip-rule="evenodd" fill="#FFFFFF" d="M33.5,29.7L23.2,19.4c-0.4-0.4-0.9-0.4-1.3,0
			c-0.4,0.4-0.4,0.9,0,1.3l9.7,9.6l-9.7,9.6c-0.4,0.4-0.4,0.9,0,1.3c0.4,0.4,0.9,0.4,1.3,0L33.5,31C33.9,30.6,33.9,30,33.5,29.7z"/>
	</g>
</g>
</svg>
