<?xml version="1.0" encoding="utf-8"?>
<!-- Generator: Adobe Illustrator 19.2.0, SVG Export Plug-In . SVG Version: 6.00 Build 0)  -->
<svg version="1.1" id="Layer_1" xmlns="http://www.w3.org/2000/svg" xmlns:xlink="http://www.w3.org/1999/xlink" x="0px" y="0px"
	 viewBox="0 0 24 24" enable-background="new 0 0 24 24" xml:space="preserve">
<path fill="none" d="M0,0h24v24H0V0z"/>
<path fill="#404451" d="M3,5.1v14c0,1.1,0.9,2,2,2h14c1.1,0,2-0.9,2-2v-14c0-1.1-0.9-2-2-2H5C3.9,3.1,3,4,3,5.1z M15,9.1
	c0,1.7-1.3,3-3,3s-3-1.3-3-3s1.3-3,3-3S15,7.4,15,9.1z M6,17.1c0-2,4-3.1,6-3.1s6,1.1,6,3.1v1H6V17.1z"/>
</svg>
