<?xml version="1.0" encoding="utf-8"?>
<!-- Generator: Adobe Illustrator 19.2.0, SVG Export Plug-In . SVG Version: 6.00 Build 0)  -->
<svg version="1.1" id="Layer_1" xmlns="http://www.w3.org/2000/svg" xmlns:xlink="http://www.w3.org/1999/xlink" x="0px" y="0px"
	 viewBox="0 0 24 24" enable-background="new 0 0 24 24" xml:space="preserve">
<rect fill="none" width="24" height="24"/>
<path fill="#404451" d="M18.2,17.2h-12v-2h12V17.2z M18.2,13.2h-12v-2h12V13.2z M18.2,9.2h-12v-2h12V9.2z M3.2,22.2l1.5-1.5l1.5,1.5
	l1.5-1.5l1.5,1.5l1.5-1.5l1.5,1.5l1.5-1.5l1.5,1.5l1.5-1.5l1.5,1.5l1.5-1.5l1.5,1.5v-20l-1.5,1.5l-1.5-1.5l-1.5,1.5l-1.5-1.5
	l-1.5,1.5l-1.5-1.5l-1.5,1.5L9.2,2.2L7.7,3.7L6.2,2.2L4.7,3.7L3.2,2.2V22.2z"/>
</svg>
