<?xml version="1.0" encoding="utf-8"?>
<!-- Generator: Adobe Illustrator 19.2.0, SVG Export Plug-In . SVG Version: 6.00 Build 0)  -->
<svg version="1.1" id="Layer_1" xmlns="http://www.w3.org/2000/svg" xmlns:xlink="http://www.w3.org/1999/xlink" x="0px" y="0px"
	 viewBox="0 0 24 24" enable-background="new 0 0 24 24" xml:space="preserve">
<path fill="#1E88E5" d="M19.9,23.6l-5.4-5.4c-1.5,1-3.2,1.5-5.1,1.5c-5.2,0-9.4-4.2-9.4-9.4c0-5.2,4.2-9.4,9.4-9.4
	c5.2,0,9.4,4.2,9.4,9.4c0,1.8-0.5,3.5-1.4,5l5.4,5.4c0.3,0.3,0,1-0.5,1.6l-0.8,0.8C20.8,23.7,20.1,23.9,19.9,23.6z M15.6,10.3
	c0-3.5-2.8-6.3-6.3-6.3c-3.5,0-6.3,2.8-6.3,6.3c0,3.5,2.8,6.3,6.3,6.3C12.8,16.6,15.6,13.8,15.6,10.3z"/>
</svg>
