<?xml version="1.0" encoding="utf-8"?>
<!-- Generator: Adobe Illustrator 19.2.0, SVG Export Plug-In . SVG Version: 6.00 Build 0)  -->
<svg version="1.1" id="Layer_1" xmlns="http://www.w3.org/2000/svg" xmlns:xlink="http://www.w3.org/1999/xlink" x="0px" y="0px"
	 viewBox="0 0 24 24" enable-background="new 0 0 24 24" xml:space="preserve">
<path fill="none" d="M0,0h24v24H0V0z"/>
<path fill="#404451" d="M17,10.4c1.7,0,3-1.3,3-3s-1.3-3-3-3s-3,1.3-3,3S15.3,10.4,17,10.4z M9,10.4c1.7,0,3-1.3,3-3s-1.3-3-3-3
	s-3,1.3-3,3S7.3,10.4,9,10.4z M9,12.4c-2.3,0-7,1.2-7,3.5v2.5h14v-2.5C16,13.6,11.3,12.4,9,12.4z M17,12.4c-0.3,0-0.6,0-1,0.1
	c1.2,0.8,2,2,2,3.4v2.5h6v-2.5C24,13.6,19.3,12.4,17,12.4z"/>
</svg>
