<?xml version="1.0" encoding="utf-8"?>
<!-- Generator: Adobe Illustrator 19.2.0, SVG Export Plug-In . SVG Version: 6.00 Build 0)  -->
<svg class="svg-messages" version="1.1" id="Layer_1" xmlns="http://www.w3.org/2000/svg" xmlns:xlink="http://www.w3.org/1999/xlink" x="0px" y="0px"
	 viewBox="0 0 24 24" enable-background="new 0 0 24 24" xml:space="preserve">
<rect fill="none" width="24" height="24"/>
<path class="svg-messages-inner" fill="#FFFFFF" d="M9,21c0,0.5,0.4,1,1,1h4c0.6,0,1-0.5,1-1v-1H9V21z M12,2C8.1,2,5,5.1,5,9c0,2.4,1.2,4.5,3,5.7V17
	c0,0.5,0.4,1,1,1h6c0.6,0,1-0.5,1-1v-2.3c1.8-1.3,3-3.4,3-5.7C19,5.1,15.9,2,12,2z M14.9,13.1L14,13.7V16h-4v-2.3l-0.9-0.6
	C7.8,12.2,7,10.6,7,9c0-2.8,2.2-5,5-5s5,2.2,5,5C17,10.6,16.2,12.2,14.9,13.1z"/>
</svg>