<?xml version="1.0" encoding="utf-8"?>
<!-- Generator: Adobe Illustrator 19.2.0, SVG Export Plug-In . SVG Version: 6.00 Build 0)  -->
<svg version="1.1" id="Layer_1" xmlns="http://www.w3.org/2000/svg" xmlns:xlink="http://www.w3.org/1999/xlink" x="0px" y="0px"
	 viewBox="0 0 24 24" enable-background="new 0 0 24 24" xml:space="preserve">
<path fill="none" d="M0,0h24v24H0V0z"/>
<path fill="#1E88E5" d="M23,11l-5,0c-0.5,0-1,0.4-1,1v9c0,0.5,0.5,1,1,1h5c0.5,0,1-0.5,1-1v-9C24,11.4,23.5,11,23,11z M23,20h-5v-7
	h5V20z M20,2H2C0.9,2,0,2.9,0,4v12c0,1.1,0.9,2,2,2h7v2H7v2h8v-2h-2v-2h2v-2H2V4h18v5h2V4C22,2.9,21.1,2,20,2z M12,9l-1-3l-1,3H7
	l2.5,1.8l-0.9,2.9l2.5-1.8l2.5,1.8l-0.9-2.9L15,9H12z"/>
</svg>
