<?xml version="1.0" encoding="utf-8"?>
<!-- Generator: Adobe Illustrator 19.2.0, SVG Export Plug-In . SVG Version: 6.00 Build 0)  -->
<svg version="1.1" id="Layer_1" xmlns="http://www.w3.org/2000/svg" xmlns:xlink="http://www.w3.org/1999/xlink" x="0px" y="0px"
	 viewBox="0 0 35 35" enable-background="new 0 0 35 35" xml:space="preserve">
<path fill-rule="evenodd" clip-rule="evenodd" fill="#404451" d="M2,0h31c1.1,0,2,0.9,2,2v31c0,1.1-0.9,2-2,2H2c-1.1,0-2-0.9-2-2V2
	C0,0.9,0.9,0,2,0z"/>
<path fill="#FFFFFF" d="M5.1,25.2v5.1h5.1l15.2-15.2L20.3,10L5.1,25.2z M29.5,11.2c0.5-0.5,0.5-1.4,0-1.9L26.2,6
	c-0.5-0.5-1.4-0.5-1.9,0l-2.5,2.5l5.1,5.1C26.9,13.7,29.5,11.2,29.5,11.2z"/>
</svg>
