<?xml version="1.0" encoding="utf-8"?>
<!-- Generator: Adobe Illustrator 19.2.0, SVG Export Plug-In . SVG Version: 6.00 Build 0)  -->
<svg version="1.1" id="Layer_1" xmlns="http://www.w3.org/2000/svg" xmlns:xlink="http://www.w3.org/1999/xlink" x="0px" y="0px"
	 viewBox="0 0 35 35" enable-background="new 0 0 35 35" xml:space="preserve">
<path fill="#404451" d="M2,0h31c1.1,0,2,0.9,2,2v31c0,1.1-0.9,2-2,2H2c-1.1,0-2-0.9-2-2V2C0,0.9,0.9,0,2,0z"/>
<path fill="#FFFFFF" d="M18,23c1.1,0,2-0.9,2-2s-0.9-2-2-2s-2,0.9-2,2S16.9,23,18,23z M24,14h-1v-2c0-2.8-2.2-5-5-5s-5,2.2-5,5h1.9
	c0-1.7,1.4-3.1,3.1-3.1s3.1,1.4,3.1,3.1v2H12c-1.1,0-2,0.9-2,2v10c0,1.1,0.9,2,2,2h12c1.1,0,2-0.9,2-2V16C26,14.9,25.1,14,24,14z
	 M24,26H12V16h12V26z"/>
</svg>
