<?xml version="1.0" encoding="utf-8"?>
<!-- Generator: Adobe Illustrator 19.2.0, SVG Export Plug-In . SVG Version: 6.00 Build 0)  -->
<svg class="svg-rss" version="1.1" id="Layer_1" xmlns="http://www.w3.org/2000/svg" xmlns:xlink="http://www.w3.org/1999/xlink" x="0px" y="0px"
	 viewBox="0 0 55 60" enable-background="new 0 0 55 60" xml:space="preserve">
<path class="svg-rss-inner" fill-rule="evenodd" clip-rule="evenodd" fill="#F44336" d="M27.9,7.3c13.3,0,24,10.8,24,24.1c0,13.3-10.7,24.1-24,24.1
	s-24-10.8-24-24.1C3.9,18.1,14.6,7.3,27.9,7.3z"/>
<g>
	<g>
		<path fill-rule="evenodd" clip-rule="evenodd" fill="#FFFFFF" d="M29.2,31.3l8.4-8.5c0.4-0.4,0.4-0.9,0-1.3
			c-0.4-0.4-0.9-0.4-1.3,0l-8.4,8.5l-8.5-8.5c-0.4-0.4-0.9-0.4-1.3,0c-0.4,0.4-0.4,0.9,0,1.3l8.5,8.5l-8.5,8.6
			c-0.4,0.4-0.4,0.9,0,1.3c0.4,0.4,0.9,0.4,1.3,0l8.5-8.6l8.4,8.4c0.4,0.4,0.9,0.4,1.3,0c0.4-0.4,0.4-0.9,0-1.3L29.2,31.3z"/>
	</g>
</g>
</svg>