<?xml version="1.0" encoding="utf-8"?>
<!-- Generator: Adobe Illustrator 19.2.0, SVG Export Plug-In . SVG Version: 6.00 Build 0)  -->
<svg class="svg-ico_private" version="1.1" id="Layer_1" xmlns="http://www.w3.org/2000/svg" xmlns:xlink="http://www.w3.org/1999/xlink" x="0px" y="0px"
	 viewBox="0 0 24 24" enable-background="new 0 0 24 24" xml:space="preserve">
<path fill="#8E76B0" d="M19.7,9h-1V7.3c0-3.7-3-6.7-6.7-6.7s-6.7,3-6.7,6.7V9h-1c-0.6,0-1.1,0.5-1.1,1.1v11.7c0,0.6,0.5,1.1,1.1,1.1
	h15.4c0.6,0,1.1-0.5,1.1-1.1V10.2C20.9,9.5,20.4,9,19.7,9z M7.6,7.3c0-2.4,2-4.4,4.4-4.4s4.4,2,4.4,4.4V9H7.6V7.3z M18.6,20.8H5.5
	v-9.5h13.1V20.8z"/>
<path fill="#8E76B0" d="M12.1,18.5c1,0,1.7-0.8,1.7-1.7c0-1-0.8-1.7-1.7-1.7s-1.7,0.8-1.7,1.7l0,0C10.3,17.7,11.1,18.5,12.1,18.5z
	 M12.1,16.2c0.3,0,0.5,0.2,0.5,0.5c0,0.3-0.2,0.5-0.5,0.5c-0.3,0-0.5-0.2-0.5-0.5S11.8,16.2,12.1,16.2L12.1,16.2z"/>
</svg>
