<?xml version="1.0" encoding="utf-8"?>
<!-- Generator: Adobe Illustrator 19.2.0, SVG Export Plug-In . SVG Version: 6.00 Build 0)  -->
<svg class="svg-ico_hide" version="1.1" id="Layer_1" xmlns="http://www.w3.org/2000/svg" xmlns:xlink="http://www.w3.org/1999/xlink" x="0px" y="0px"
	 viewBox="0 0 25 24" enable-background="new 0 0 25 24" xml:space="preserve">
<g>
	<path fill="#788F9B" d="M24.9,11.7c0-0.1-1-2.5-3.5-4.6l-1.3,1.5c1.5,1.3,2.4,2.8,2.7,3.5c-0.7,1.4-3.7,6.2-10.3,6.2
		c-1.1,0-2.2-0.1-3.3-0.4l-0.5,1.9c1.2,0.3,2.5,0.5,3.8,0.5c9,0,12.2-7.5,12.4-7.9C25,12.2,25,12,24.9,11.7z"/>
	<path fill="#788F9B" d="M3.6,17.1l1.3-1.5c-1.5-1.3-2.4-2.8-2.7-3.5c0.7-1.4,3.7-6.2,10.3-6.2c1.1,0,2.2,0.1,3.3,0.4l0.5-1.9
		c-1.2-0.3-2.5-0.5-3.8-0.5c-9,0-12.2,7.5-12.4,7.9C0,12,0,12.2,0.1,12.5C0.2,12.6,1.2,15,3.6,17.1z"/>
	<path fill="#788F9B" d="M12.5,16c2.1,0,3.9-1.7,3.9-3.9c0-0.7-0.2-1.4-0.5-1.9l6.9-6.9l-1.4-1.4l-6.9,6.9c-0.6-0.3-1.2-0.5-1.9-0.5
		c-2.1,0-3.9,1.7-3.9,3.9c0,0.7,0.2,1.4,0.5,1.9l-6.9,6.9l1.4,1.4l6.9-6.9C11.1,15.8,11.8,16,12.5,16z M14.4,12.1
		c0,1-0.8,1.9-1.9,1.9c-0.1,0-0.3,0-0.4,0l2.2-2.2C14.4,11.8,14.4,12,14.4,12.1z M10.6,12.1c0-1,0.8-1.9,1.9-1.9c0.1,0,0.3,0,0.4,0
		l-2.2,2.2C10.6,12.4,10.6,12.2,10.6,12.1z"/>
</g>
</svg>
